<svg xmlns="http://www.w3.org/2000/svg" version="1.1" xmlns:xlink="http://www.w3.org/1999/xlink" xmlns:svgjs="http://svgjs.dev/svgjs" width="1500" height="1500" viewBox="0 0 1500 1500"><rect width="1500" height="1500" fill="#000000"></rect><g transform="matrix(0.6666666666666666,0,0,0.6666666666666666,248.44244080996884,189.33333333333348)"><svg viewBox="0 0 321 360" data-background-color="#cdc4d7" preserveAspectRatio="xMidYMid meet" height="1682" width="1500" xmlns="http://www.w3.org/2000/svg" xmlns:xlink="http://www.w3.org/1999/xlink"><g id="tight-bounds" transform="matrix(1,0,0,1,0.5000234999999975,0)"><svg viewBox="0 0 320 360" height="360" width="320"><g><svg></svg></g><g><svg viewBox="0 0 320 360" height="360" width="320"><g><path transform="translate(-74.99272,-51.79039) scale(4.65793,4.65793)" d="M20.6 59.9l0.8 1-0.4-1.3c-0.1-0.6-0.8 0.1-0.4 0.3M21.5 59.3c0.3 0.5 0.6 1 0.6 1.5 0 0.7 0.6 1 1.1 1.2-0.7-0.8-1.1-3-1.7-2.7M59.9 16.9c1.7 0 3.3-0.2 5.1 0.2 4.4 1.1 8.1 3.3 10.6 6.4l7 11.2c0.3 2.8 0.9 5.9 0.8 9.3 0.7 0 0.6-1 1.4-1.2-0.8 2-1.2 4.5-1.4 7.4-0.5-1.6 0-4 0.1-5.3-0.7 1.1-1.1 0.3-1.1-0.2 0.1-0.8-0.3-0.7-0.6-1-1.1-1-1.8-2.1-2.6-3.8 0.5-1.3 0.6-3.2-1-4.2-0.5-0.3-1.1-0.8-1.4-1.6-0.4-1.1-1.1-2.4-0.9-4.1 0.1-0.5-1.5 1.1-2.4 0.4-3.9-2.7-7.8-5.8-12.5-8.4-2.5 0-4.3-0.9-5.2-2-0.8-1-0.2-2.3 1-2.4 0.7 0 1.5-0.2 2.1 0.2 0.1-0.4 0.5-0.9 1-0.9M50 14.6l0.2 0.1c1 0.2 1.5 1.6 2.6 1.1 0 0.7 0.1 1.4-0.1 1.9-0.3 0.8-1.2 0.8-1.9 0.8-6.7-0.4-10.6 2.4-14.7 4.8-1.1 0.7-2.3 1.2-3.2 2.1-4.3 4-9 7.7-10.1 15.1l-0.9 8.2c-0.1 0.9-1.1 1.8-0.9 2.9l0.7 4.9c-0.7-0.7-1.1 0.2-0.9 0.6 0.1 0.3 0.5 1.3 1.1 0.4 0.8 1.5 1.6 4.4 2.7 5.7 3.4 4 7.8 7.6 11.4 11.2 0.9-0.2 1.6-0.2 1.8-0.8 0.3 0.6-0.3 1.2-0.8 1.3 1.6 1 3.4 1.9 5.8 2.1 3.1 0.2 6 0.7 8.7 1.4 1.4-0.4 2.8-0.6 4.3-0.7 0.5 0 0.8-0.8 1.4-1l0.1-1c0.6 0.9 0.5-0.3 0.1-0.9 0.7 0.6 0.9 1.1 1.2 1.5 0-0.3 0.8-1.4 0.8-0.1l0.2-1.3c0.3-0.2 0.4 1.1 0.7 0.2 0.3-0.9 0.9-0.2 1.5-0.5-0.2 0.4-0.1 1.2 0.6 0.7l0.8-0.7c0.5 1.2 1.3 0.7 1.7 0.5 4.4-2.8 8.8-6.1 13-9.4l-0.1 1.3 0.5-1.6c0.5 0.5 0.9 0.1 1.1-0.2 0.6-1 1.4-2 2.7-2.9-1.6 4.3-3.5 7.7-5.9 10.5l-1 1.2c0 0.7-0.2 1.6-1 1.7-0.4 0.1-1.2-0.2-1.8 0.4-0.3 0.4 0.7 1.2-0.1 0.6-0.7-0.5-1.4 0-2.2 0.2-0.6 0.2 0.4 0.8 0.6 1.2 0.2 0.4 0.4 0.8 0.3 1.3l-1.1-1.2c-1.3 0.7-2.1 2-3.2 3-0.5 0.4-0.3 1.1-0.3 1.7-0.7 0-1.5-0.2-1.9 0.2-0.3 0.4-0.2 1-0.2 1.6-1-0.1-1.1-1.6-2-1.3-0.9 0.2-1.9 0.3-2.7 0.8 0.6 1.2-1 0.5-0.8 0.7-1.5-0.9-2.8-1.6-4.4-1-3.4-1.1-7.6-0.6-10.7-0.2 0-0.5 0.1-1-0.1-1.1-0.2 0.5-0.8 0.3-0.7 0.3-1.9-1.3-3.8-2.1-5.8-3.2-1.8 0.2-3.5-0.7-4-1.2-1.4-1.3-3-0.6-4.3-0.9-2.8-0.7-3.8-3.6-4.1-5.6-0.2-1-1-1.4-1.3-1.3-1.3-4.2-3.3-8-4.9-11.9-0.4-1-0.3-2-0.3-3.1 0.5 0.2 1 0.1 0.9-0.6-0.5-3.3-1.7-5.8-3-8.2 0.7-3.4 0.8-7.4 2.4-10.4 1.4-2.7 4-4.1 5.8-6.4 0.6-0.8 0.6-1.9 1.2-2.6 2-2 4-4.1 6.2-5.9 1-0.8 2.2 0 3.7-0.3 0.5-1.8 2.5-3.4 4.4-2.9 0.8 0.2 2.4-1.9 2.9-2.1 0.8-0.3 0.4 0.8 0.4 1.5 1.9-1.5 4.5-2.3 6.9-3.2" fill="#ffffff" fill-rule="nonzero" stroke="none" stroke-width="1" stroke-linecap="butt" stroke-linejoin="miter" stroke-miterlimit="10" stroke-dasharray="" stroke-dashoffset="0" font-family="none" font-weight="none" font-size="none" text-anchor="none" style="mix-blend-mode: normal" data-fill-palette-color="tertiary"></path></g><g transform="matrix(1,0,0,1,64,149.04802071509414)"><svg viewBox="0 0 192 61.9039585698117" height="61.9039585698117" width="192"><g><svg viewBox="0 0 192 61.9039585698117" height="61.9039585698117" width="192"><g><svg viewBox="0 0 308.3332384589976 99.41170843365447" height="61.9039585698117" width="192"><g transform="matrix(1,0,0,1,0,13.739244797994218)"><svg viewBox="0 0 192.00000000000003 71.93321883766603" height="71.93321883766603" width="192.00000000000003"><g id="textblocktransform"><svg viewBox="0 0 192.00000000000003 71.93321883766603" height="71.93321883766603" width="192.00000000000003" id="textblock"><g><svg viewBox="0 0 192.00000000000003 46.43546284224251" height="46.43546284224251" width="192.00000000000003"><g transform="matrix(1,0,0,1,0,0)"><svg width="192.00000000000003" viewBox="1.1 -36.75 153.39000000000001 37.1" height="46.43546284224251" data-palette-color="#f70f03"><path d="M7.1 0.2L7.1 0.2Q5.3 0.2 3.85-1.3 2.4-2.8 2.4-6.25L2.4-6.25Q2.4-9.05 3.05-11.75 3.7-14.45 4.53-17.23 5.35-20 5.93-22.98 6.5-25.95 6.3-29.25L6.3-29.25Q4.95-29.05 3.65-28.55 2.35-28.05 1.1-27.1L1.1-27.1Q1.1-30.25 1.65-32.23 2.2-34.2 3.8-35.1 5.4-36 8.55-36L8.55-36Q10.25-36 12.35-35.75 14.45-35.5 16.68-35.25 18.9-35 20.9-35L20.9-35Q22.85-35 24.4-35.38 25.95-35.75 26.8-36.75L26.8-36.75Q27.8-36.1 28.33-34.98 28.85-33.85 28.85-32.55L28.85-32.55Q28.85-31.2 28.23-29.93 27.6-28.65 26.3-27.83 25-27 22.9-27L22.9-27Q20.7-27 18.1-27.7 15.5-28.4 12.75-28.9L12.75-28.9Q13-27.8 13.13-26.7 13.25-25.6 13.25-24.45L13.25-24.45Q13.25-23.2 13.15-21.98 13.05-20.75 12.85-19.45L12.85-19.45Q13.9-20 15.4-20.45 16.9-20.9 18.48-21.2 20.05-21.5 21.3-21.5L21.3-21.5Q22.1-21.5 22.7-21.35L22.7-21.35Q23.2-20.3 23.2-18.8L23.2-18.8Q23.2-16.4 22-13.9L22-13.9 21.65-13.75Q19.8-14.75 17.38-15.3 14.95-15.85 12.3-16.05L12.3-16.05Q11.8-13.2 11.35-10.25 10.9-7.3 10.9-4.2L10.9-4.2Q10.9-3.55 10.93-2.85 10.95-2.15 11-1.45L11-1.45Q9.35 0.2 7.1 0.2ZM39.8 0.35L39.8 0.35Q36.05 0.35 33.6-1.15 31.15-2.65 29.97-5.13 28.8-7.6 28.8-10.4L28.8-10.4Q28.8-13.05 29.77-15.7 30.75-18.35 32.62-20.53 34.5-22.7 37.2-24.03 39.9-25.35 43.4-25.35L43.4-25.35Q47.15-25.35 49.57-23.83 52-22.3 53.17-19.8 54.35-17.3 54.35-14.45L54.35-14.45Q54.35-11.85 53.4-9.22 52.45-6.6 50.57-4.42 48.7-2.25 46-0.95 43.3 0.35 39.8 0.35ZM41.15-3.9L41.15-3.9Q42.5-3.9 43.4-5.3 44.3-6.7 44.75-8.88 45.2-11.05 45.2-13.3L45.2-13.3Q45.2-15.3 44.82-17.07 44.45-18.85 43.7-19.98 42.95-21.1 41.75-21.1L41.75-21.1Q40.45-21.1 39.52-19.7 38.6-18.3 38.15-16.15 37.7-14 37.7-11.7L37.7-11.7Q37.7-9.7 38.07-7.93 38.45-6.15 39.2-5.03 39.95-3.9 41.15-3.9ZM68.15 0.35L68.15 0.35Q64.4 0.35 61.95-1.15 59.5-2.65 58.32-5.13 57.15-7.6 57.15-10.4L57.15-10.4Q57.15-13.05 58.12-15.7 59.1-18.35 60.97-20.53 62.85-22.7 65.55-24.03 68.25-25.35 71.75-25.35L71.75-25.35Q75.5-25.35 77.92-23.83 80.34-22.3 81.52-19.8 82.7-17.3 82.7-14.45L82.7-14.45Q82.7-11.85 81.75-9.22 80.8-6.6 78.92-4.42 77.05-2.25 74.34-0.95 71.65 0.35 68.15 0.35ZM69.5-3.9L69.5-3.9Q70.84-3.9 71.75-5.3 72.65-6.7 73.09-8.88 73.55-11.05 73.55-13.3L73.55-13.3Q73.55-15.3 73.17-17.07 72.8-18.85 72.05-19.98 71.3-21.1 70.09-21.1L70.09-21.1Q68.8-21.1 67.87-19.7 66.95-18.3 66.5-16.15 66.05-14 66.05-11.7L66.05-11.7Q66.05-9.7 66.42-7.93 66.8-6.15 67.55-5.03 68.3-3.9 69.5-3.9ZM92.74 0.2L92.74 0.2Q90.94 0.2 89.37-1.05 87.79-2.3 86.82-4.7 85.84-7.1 85.84-10.5L85.84-10.5Q85.84-14 86.84-16.75 87.84-19.5 89.47-21.43 91.09-23.35 93.02-24.35 94.94-25.35 96.79-25.35L96.79-25.35Q98.84-25.35 100.44-24.08 102.04-22.8 102.64-20.1L102.64-20.1Q103.09-22.6 103.42-24.88 103.74-27.15 103.74-28.9L103.74-28.9Q103.74-31.2 103.14-32.25L103.14-32.25 103.14-32.55Q104.29-33.85 105.67-34.48 107.04-35.1 108.29-35.1L108.29-35.1Q109.94-35.1 111.09-34.08 112.24-33.05 112.24-31.15L112.24-31.15Q112.24-30.1 111.89-28.05 111.54-26 111.04-23.38 110.54-20.75 110.02-17.98 109.49-15.2 109.14-12.68 108.79-10.15 108.79-8.3L108.79-8.3Q108.79-6.75 109.12-5.83 109.44-4.9 110.19-4.9L110.19-4.9Q110.74-4.9 111.32-5.28 111.89-5.65 112.09-6.15L112.09-6.15 112.44-5.9Q112.44-4.25 111.39-2.88 110.34-1.5 108.74-0.65 107.14 0.2 105.44 0.2L105.44 0.2Q103.59 0.2 102.52-0.83 101.44-1.85 100.99-3.45 100.54-5.05 100.49-6.75L100.49-6.75Q98.94-3.15 96.87-1.48 94.79 0.2 92.74 0.2ZM96.09-6.15L96.09-6.15Q97.39-6.15 98.99-8.5 100.59-10.85 101.79-15.35L101.79-15.35 102.09-16.9Q101.29-18.75 100.37-19.53 99.44-20.3 98.59-20.3L98.59-20.3Q97.34-20.3 96.24-18.93 95.14-17.55 94.47-15.43 93.79-13.3 93.79-10.95L93.79-10.95Q93.79-8.7 94.44-7.43 95.09-6.15 96.09-6.15ZM124.09-26.75L124.09-26.75Q122.09-26.75 120.81-27.98 119.54-29.2 119.54-31.05L119.54-31.05Q119.54-33.05 121.04-34.5 122.54-35.95 124.69-35.95L124.69-35.95Q126.69-35.95 127.97-34.7 129.24-33.45 129.24-31.6L129.24-31.6Q129.24-29.6 127.74-28.18 126.24-26.75 124.09-26.75ZM120.59 0.2L120.59 0.2Q118.64 0.2 117.09-1.18 115.54-2.55 115.54-5.6L115.54-5.6Q115.54-7.35 116.02-8.88 116.49-10.4 117.11-11.85 117.74-13.3 118.22-14.68 118.69-16.05 118.69-17.4L118.69-17.4Q118.69-18.6 118.29-19.13 117.89-19.65 117.34-19.65L117.34-19.65Q116.49-19.65 115.69-18.55L115.69-18.55 115.34-18.75Q115.54-20.75 116.61-22.18 117.69-23.6 119.27-24.4 120.84-25.2 122.39-25.2L122.39-25.2Q124.29-25.2 125.69-23.98 127.09-22.75 127.09-20L127.09-20Q127.09-18.35 126.61-16.53 126.14-14.7 125.52-12.9 124.89-11.1 124.41-9.55 123.94-8 123.94-6.9L123.94-6.9Q123.94-5.95 124.31-5.55 124.69-5.15 125.14-5.15L125.14-5.15Q125.59-5.15 126.02-5.43 126.44-5.7 126.64-6.05L126.64-6.05 126.99-5.95Q126.99-4.1 126.02-2.73 125.04-1.35 123.59-0.58 122.14 0.2 120.59 0.2ZM141.69 0.35L141.69 0.35Q138.04 0.35 135.64-1.13 133.24-2.6 132.04-5.03 130.84-7.45 130.84-10.25L130.84-10.25Q130.84-12.9 131.86-15.58 132.89-18.25 134.86-20.45 136.84-22.65 139.66-24 142.49-25.35 146.04-25.35L146.04-25.35Q150.44-25.35 152.46-23.38 154.49-21.4 154.49-18.6L154.49-18.6Q154.49-16.2 153.21-14.18 151.94-12.15 149.84-10.93 147.74-9.7 145.24-9.7L145.24-9.7Q143.94-9.7 142.59-10.1 141.24-10.5 139.94-11.35L139.94-11.35Q140.19-8.25 141.74-6.85 143.29-5.45 145.44-5.45L145.44-5.45Q146.94-5.45 148.44-6.03 149.94-6.6 151.21-7.53 152.49-8.45 153.19-9.5L153.19-9.5 153.54-9.25Q153.54-6.65 152.46-4.83 151.39-3 149.64-1.85 147.89-0.7 145.81-0.18 143.74 0.35 141.69 0.35ZM142.84-13.15L142.84-13.15Q144.44-13.15 145.44-14.08 146.44-15 146.94-16.25 147.44-17.5 147.44-18.45L147.44-18.45Q147.44-19.6 146.79-20.38 146.14-21.15 144.99-21.15L144.99-21.15Q144.09-21.15 143.01-20.5 141.94-19.85 141.09-18.28 140.24-16.7 139.99-13.9L139.99-13.9Q141.59-13.15 142.84-13.15Z" opacity="1" transform="matrix(1,0,0,1,0,0)" fill="#ffffff" class="wordmark-text-0" data-fill-palette-color="primary" id="text-0"></path></svg></g></svg></g><g transform="matrix(1,0,0,1,0,57.39776116818775)"><svg viewBox="0 0 192.00000000000003 14.53545766947829" height="14.53545766947829" width="192.00000000000003"><g transform="matrix(1,0,0,1,0,0)"><svg width="192.00000000000003" viewBox="1 -35.01 468.84 35.5" height="14.53545766947829" data-palette-color="#f70f03"><path d="M36.65-35.01L27.39 0 25.76 0 18.95-26.34 18.85-27.71 18.7-26.34 11.94 0 10.3 0 1-35.01 4.15-35.01 11.01-8.4 11.11-7.1 11.21-8.4 17.94-35.01 19.7-35.01 26.44-8.4 26.54-7.1 26.66-8.4 33.5-35.01 36.65-35.01ZM56.64-6.86L56.64-6.86Q56.64-5.35 56.06-4 55.49-2.66 54.49-1.66 53.49-0.66 52.15-0.09 50.8 0.49 49.29 0.49L49.29 0.49 47.29 0.49Q45.77 0.49 44.43-0.09 43.09-0.66 42.09-1.66 41.09-2.66 40.51-4 39.94-5.35 39.94-6.86L39.94-6.86 39.94-18.14Q39.94-19.65 40.51-21 41.09-22.34 42.09-23.34 43.09-24.34 44.43-24.91 45.77-25.49 47.29-25.49L47.29-25.49 49.29-25.49Q50.8-25.49 52.15-24.91 53.49-24.34 54.49-23.34 55.49-22.34 56.06-21 56.64-19.65 56.64-18.14L56.64-18.14 56.64-12.26 42.94-12.26 42.94-6.69Q42.94-5.79 43.28-4.99 43.63-4.2 44.21-3.61 44.8-3.03 45.59-2.69 46.38-2.34 47.29-2.34L47.29-2.34 49.29-2.34Q50.19-2.34 50.99-2.69 51.78-3.03 52.37-3.61 52.95-4.2 53.29-4.99 53.64-5.79 53.64-6.69L53.64-6.69 53.64-8.35 56.64-7.86 56.64-6.86ZM53.64-14.6L53.64-18.31Q53.64-19.21 53.29-20.01 52.95-20.8 52.37-21.39 51.78-21.97 50.99-22.31 50.19-22.66 49.29-22.66L49.29-22.66 47.29-22.66Q46.38-22.66 45.59-22.31 44.8-21.97 44.21-21.39 43.63-20.8 43.28-20.01 42.94-19.21 42.94-18.31L42.94-18.31 42.94-14.6 53.64-14.6ZM90.84 0L89.84 0 88.18-2.54Q87.15-1.15 85.61-0.33 84.07 0.49 82.24 0.49L82.24 0.49 81.49 0.49Q79.97 0.49 78.63-0.09 77.29-0.66 76.29-1.66 75.29-2.66 74.71-4 74.14-5.35 74.14-6.86L74.14-6.86 74.14-18.14Q74.14-19.65 74.71-21 75.29-22.34 76.29-23.34 77.29-24.34 78.63-24.91 79.97-25.49 81.49-25.49L81.49-25.49 82.24-25.49Q83.93-25.49 85.37-24.8 86.81-24.12 87.83-22.9L87.83-22.9 87.83-35.01 90.84-35.01 90.84 0ZM87.83-6.69L87.83-18.31Q87.83-19.21 87.49-20.01 87.15-20.8 86.56-21.39 85.98-21.97 85.19-22.31 84.39-22.66 83.49-22.66L83.49-22.66 81.49-22.66Q80.58-22.66 79.79-22.31 79-21.97 78.41-21.39 77.82-20.8 77.48-20.01 77.14-19.21 77.14-18.31L77.14-18.31 77.14-6.69Q77.14-5.79 77.48-4.99 77.82-4.2 78.41-3.61 79-3.03 79.79-2.69 80.58-2.34 81.49-2.34L81.49-2.34 83.49-2.34Q84.39-2.34 85.19-2.69 85.98-3.03 86.56-3.61 87.15-4.2 87.49-4.99 87.83-5.79 87.83-6.69L87.83-6.69ZM113.54-6.86L113.54-6.86Q113.54-5.35 112.97-4 112.39-2.66 111.39-1.66 110.39-0.66 109.05-0.09 107.7 0.49 106.19 0.49L106.19 0.49 104.19 0.49Q102.68 0.49 101.33-0.09 99.99-0.66 98.99-1.66 97.99-2.66 97.41-4 96.84-5.35 96.84-6.86L96.84-6.86 96.84-18.14Q96.84-19.65 97.41-21 97.99-22.34 98.99-23.34 99.99-24.34 101.33-24.91 102.68-25.49 104.19-25.49L104.19-25.49 106.19-25.49Q107.7-25.49 109.05-24.91 110.39-24.34 111.39-23.34 112.39-22.34 112.97-21 113.54-19.65 113.54-18.14L113.54-18.14 113.54-12.26 99.84-12.26 99.84-6.69Q99.84-5.79 100.19-4.99 100.53-4.2 101.11-3.61 101.7-3.03 102.49-2.69 103.29-2.34 104.19-2.34L104.19-2.34 106.19-2.34Q107.09-2.34 107.89-2.69 108.68-3.03 109.27-3.61 109.85-4.2 110.2-4.99 110.54-5.79 110.54-6.69L110.54-6.69 110.54-8.35 113.54-7.86 113.54-6.86ZM110.54-14.6L110.54-18.31Q110.54-19.21 110.2-20.01 109.85-20.8 109.27-21.39 108.68-21.97 107.89-22.31 107.09-22.66 106.19-22.66L106.19-22.66 104.19-22.66Q103.29-22.66 102.49-22.31 101.7-21.97 101.11-21.39 100.53-20.8 100.19-20.01 99.84-19.21 99.84-18.31L99.84-18.31 99.84-14.6 110.54-14.6ZM123.55 0L120.54 0 120.54-35.01 123.55-35.01 123.55 0ZM134.8-31.01L131.31-31.01 131.31-35.01 134.8-35.01 134.8-31.01ZM134.56 0L131.55 0 131.55-25 134.56-25 134.56 0ZM158.26-25L149.4 0 147.91 0 139.05-25 142.05-25 148.57-6.05 148.66-4.76 148.76-6.05 155.26-25 158.26-25ZM178.45-6.86L178.45-6.86Q178.45-5.35 177.87-4 177.3-2.66 176.3-1.66 175.3-0.66 173.95-0.09 172.61 0.49 171.1 0.49L171.1 0.49 169.1 0.49Q167.58 0.49 166.24-0.09 164.9-0.66 163.9-1.66 162.9-2.66 162.32-4 161.75-5.35 161.75-6.86L161.75-6.86 161.75-18.14Q161.75-19.65 162.32-21 162.9-22.34 163.9-23.34 164.9-24.34 166.24-24.91 167.58-25.49 169.1-25.49L169.1-25.49 171.1-25.49Q172.61-25.49 173.95-24.91 175.3-24.34 176.3-23.34 177.3-22.34 177.87-21 178.45-19.65 178.45-18.14L178.45-18.14 178.45-12.26 164.75-12.26 164.75-6.69Q164.75-5.79 165.09-4.99 165.43-4.2 166.02-3.61 166.61-3.03 167.4-2.69 168.19-2.34 169.1-2.34L169.1-2.34 171.1-2.34Q172-2.34 172.79-2.69 173.59-3.03 174.17-3.61 174.76-4.2 175.1-4.99 175.44-5.79 175.44-6.69L175.44-6.69 175.44-8.35 178.45-7.86 178.45-6.86ZM175.44-14.6L175.44-18.31Q175.44-19.21 175.1-20.01 174.76-20.8 174.17-21.39 173.59-21.97 172.79-22.31 172-22.66 171.1-22.66L171.1-22.66 169.1-22.66Q168.19-22.66 167.4-22.31 166.61-21.97 166.02-21.39 165.43-20.8 165.09-20.01 164.75-19.21 164.75-18.31L164.75-18.31 164.75-14.6 175.44-14.6ZM194.8-22.14L191.8-22.14Q190.9-22.14 190.1-21.8 189.31-21.46 188.72-20.87 188.14-20.29 187.79-19.49 187.45-18.7 187.45-17.8L187.45-17.8 187.45 0 184.45 0 184.45-25 185.45-25 187.09-22.46Q188.11-23.85 189.66-24.67 191.21-25.49 193.04-25.49L193.04-25.49 194.8-25.49 194.8-22.14ZM221.65-32.15L218.89-32.15Q218.14-32.15 217.49-31.87 216.84-31.59 216.35-31.1 215.87-30.62 215.59-29.96 215.3-29.3 215.3-28.54L215.3-28.54 215.3-25 221.14-25 221.14-22.14 215.3-22.14 215.3 0 212.3 0 212.3-22.14 207.79-22.14 207.79-25 212.3-25 212.3-28.39Q212.3-29.76 212.81-30.97 213.33-32.18 214.23-33.08 215.13-33.98 216.33-34.5 217.53-35.01 218.89-35.01L218.89-35.01 221.65-35.01 221.65-32.15ZM241.35-6.86L241.35-6.86Q241.35-5.35 240.78-4 240.2-2.66 239.2-1.66 238.2-0.66 236.86-0.09 235.52 0.49 234 0.49L234 0.49 232 0.49Q230.49 0.49 229.14-0.09 227.8-0.66 226.8-1.66 225.8-2.66 225.23-4 224.65-5.35 224.65-6.86L224.65-6.86 224.65-18.14Q224.65-19.65 225.23-21 225.8-22.34 226.8-23.34 227.8-24.34 229.14-24.91 230.49-25.49 232-25.49L232-25.49 234-25.49Q235.52-25.49 236.86-24.91 238.2-24.34 239.2-23.34 240.2-22.34 240.78-21 241.35-19.65 241.35-18.14L241.35-18.14 241.35-6.86ZM238.35-6.69L238.35-18.31Q238.35-19.21 238.01-20.01 237.67-20.8 237.08-21.39 236.49-21.97 235.7-22.31 234.91-22.66 234-22.66L234-22.66 232-22.66Q231.1-22.66 230.3-22.31 229.51-21.97 228.93-21.39 228.34-20.8 228-20.01 227.66-19.21 227.66-18.31L227.66-18.31 227.66-6.69Q227.66-5.79 228-4.99 228.34-4.2 228.93-3.61 229.51-3.03 230.3-2.69 231.1-2.34 232-2.34L232-2.34 234-2.34Q234.91-2.34 235.7-2.69 236.49-3.03 237.08-3.61 237.67-4.2 238.01-4.99 238.35-5.79 238.35-6.69L238.35-6.69ZM264.05-6.86L264.05-6.86Q264.05-5.35 263.48-4 262.91-2.66 261.91-1.66 260.91-0.66 259.56-0.09 258.22 0.49 256.71 0.49L256.71 0.49 254.7 0.49Q253.19 0.49 251.85-0.09 250.5-0.66 249.5-1.66 248.5-2.66 247.93-4 247.36-5.35 247.36-6.86L247.36-6.86 247.36-18.14Q247.36-19.65 247.93-21 248.5-22.34 249.5-23.34 250.5-24.34 251.85-24.91 253.19-25.49 254.7-25.49L254.7-25.49 256.71-25.49Q258.22-25.49 259.56-24.91 260.91-24.34 261.91-23.34 262.91-22.34 263.48-21 264.05-19.65 264.05-18.14L264.05-18.14 264.05-6.86ZM261.05-6.69L261.05-18.31Q261.05-19.21 260.71-20.01 260.37-20.8 259.78-21.39 259.2-21.97 258.4-22.31 257.61-22.66 256.71-22.66L256.71-22.66 254.7-22.66Q253.8-22.66 253.01-22.31 252.21-21.97 251.63-21.39 251.04-20.8 250.7-20.01 250.36-19.21 250.36-18.31L250.36-18.31 250.36-6.69Q250.36-5.79 250.7-4.99 251.04-4.2 251.63-3.61 252.21-3.03 253.01-2.69 253.8-2.34 254.7-2.34L254.7-2.34 256.71-2.34Q257.61-2.34 258.4-2.69 259.2-3.03 259.78-3.61 260.37-4.2 260.71-4.99 261.05-5.79 261.05-6.69L261.05-6.69ZM286.76 0L285.76 0 284.1-2.54Q283.07-1.15 281.53-0.33 279.99 0.49 278.16 0.49L278.16 0.49 277.41 0.49Q275.89 0.49 274.55-0.09 273.21-0.66 272.21-1.66 271.21-2.66 270.63-4 270.06-5.35 270.06-6.86L270.06-6.86 270.06-18.14Q270.06-19.65 270.63-21 271.21-22.34 272.21-23.34 273.21-24.34 274.55-24.91 275.89-25.49 277.41-25.49L277.41-25.49 278.16-25.49Q279.85-25.49 281.29-24.8 282.73-24.12 283.75-22.9L283.75-22.9 283.75-35.01 286.76-35.01 286.76 0ZM283.75-6.69L283.75-18.31Q283.75-19.21 283.41-20.01 283.07-20.8 282.48-21.39 281.9-21.97 281.11-22.31 280.31-22.66 279.41-22.66L279.41-22.66 277.41-22.66Q276.5-22.66 275.71-22.31 274.92-21.97 274.33-21.39 273.74-20.8 273.4-20.01 273.06-19.21 273.06-18.31L273.06-18.31 273.06-6.69Q273.06-5.79 273.4-4.99 273.74-4.2 274.33-3.61 274.92-3.03 275.71-2.69 276.5-2.34 277.41-2.34L277.41-2.34 279.41-2.34Q280.31-2.34 281.11-2.69 281.9-3.03 282.48-3.61 283.07-4.2 283.41-4.99 283.75-5.79 283.75-6.69L283.75-6.69ZM333.65-25L325.3 0 323.67 0 317.81-18.85 317.71-20.14 317.61-18.85 311.75 0 310.09 0 301.74-25 304.79-25 310.75-6.1 310.85-4.81 310.95-6.1 316.81-25 318.61-25 324.45-6.1 324.54-4.81 324.64-6.1 330.6-25 333.65-25ZM341.41-31.01L337.92-31.01 337.92-35.01 341.41-35.01 341.41-31.01ZM341.17 0L338.17 0 338.17-25 341.17-25 341.17 0ZM360.01 0L357.28 0Q355.91 0 354.7-0.51 353.5-1.03 352.6-1.93 351.71-2.83 351.19-4.03 350.66-5.22 350.66-6.59L350.66-6.59 350.66-22.14 346.17-22.14 346.17-25 350.66-25 350.66-31.01 353.67-31.49 353.67-25 360.01-25 360.01-22.14 353.67-22.14 353.67-6.45Q353.67-5.69 353.95-5.04 354.23-4.39 354.72-3.91 355.2-3.42 355.86-3.14 356.52-2.86 357.28-2.86L357.28-2.86 360.01-2.86 360.01 0ZM382.23 0L379.22 0 379.22-18.31Q379.22-19.21 378.88-20.01 378.54-20.8 377.96-21.39 377.37-21.97 376.58-22.31 375.78-22.66 374.88-22.66L374.88-22.66 372.88-22.66Q371.97-22.66 371.18-22.31 370.39-21.97 369.8-21.39 369.22-20.8 368.87-20.01 368.53-19.21 368.53-18.31L368.53-18.31 368.53 0 365.53 0 365.53-35.01 368.53-35.01 368.53-22.9Q369.56-24.12 371-24.8 372.44-25.49 374.12-25.49L374.12-25.49 374.88-25.49Q376.39-25.49 377.74-24.91 379.08-24.34 380.08-23.34 381.08-22.34 381.65-21 382.23-19.65 382.23-18.14L382.23-18.14 382.23 0ZM403.73 0L400.73 0 400.73-35.01 403.73-35.01 403.73 0ZM426.95-6.86L426.95-6.86Q426.95-5.35 426.37-4 425.8-2.66 424.8-1.66 423.8-0.66 422.45-0.09 421.11 0.49 419.6 0.49L419.6 0.49 417.6 0.49Q416.08 0.49 414.74-0.09 413.4-0.66 412.4-1.66 411.4-2.66 410.82-4 410.25-5.35 410.25-6.86L410.25-6.86 410.25-18.14Q410.25-19.65 410.82-21 411.4-22.34 412.4-23.34 413.4-24.34 414.74-24.91 416.08-25.49 417.6-25.49L417.6-25.49 419.6-25.49Q421.11-25.49 422.45-24.91 423.8-24.34 424.8-23.34 425.8-22.34 426.37-21 426.95-19.65 426.95-18.14L426.95-18.14 426.95-6.86ZM423.94-6.69L423.94-18.31Q423.94-19.21 423.6-20.01 423.26-20.8 422.67-21.39 422.09-21.97 421.3-22.31 420.5-22.66 419.6-22.66L419.6-22.66 417.6-22.66Q416.69-22.66 415.9-22.31 415.11-21.97 414.52-21.39 413.93-20.8 413.59-20.01 413.25-19.21 413.25-18.31L413.25-18.31 413.25-6.69Q413.25-5.79 413.59-4.99 413.93-4.2 414.52-3.61 415.11-3.03 415.9-2.69 416.69-2.34 417.6-2.34L417.6-2.34 419.6-2.34Q420.5-2.34 421.3-2.69 422.09-3.03 422.67-3.61 423.26-4.2 423.6-4.99 423.94-5.79 423.94-6.69L423.94-6.69ZM449.65-25L440.79 0 439.3 0 430.44-25 433.44-25 439.96-6.05 440.05-4.76 440.15-6.05 446.65-25 449.65-25ZM469.84-6.86L469.84-6.86Q469.84-5.35 469.26-4 468.69-2.66 467.69-1.66 466.69-0.66 465.35-0.09 464 0.49 462.49 0.49L462.49 0.49 460.49 0.49Q458.97 0.49 457.63-0.09 456.29-0.66 455.29-1.66 454.29-2.66 453.71-4 453.14-5.35 453.14-6.86L453.14-6.86 453.14-18.14Q453.14-19.65 453.71-21 454.29-22.34 455.29-23.34 456.29-24.34 457.63-24.91 458.97-25.49 460.49-25.49L460.49-25.49 462.49-25.49Q464-25.49 465.35-24.91 466.69-24.34 467.69-23.34 468.69-22.34 469.26-21 469.84-19.65 469.84-18.14L469.84-18.14 469.84-12.26 456.14-12.26 456.14-6.69Q456.14-5.79 456.48-4.99 456.82-4.2 457.41-3.61 458-3.03 458.79-2.69 459.58-2.34 460.49-2.34L460.49-2.34 462.49-2.34Q463.39-2.34 464.19-2.69 464.98-3.03 465.57-3.61 466.15-4.2 466.49-4.99 466.83-5.79 466.83-6.69L466.83-6.69 466.83-8.35 469.84-7.86 469.84-6.86ZM466.83-14.6L466.83-18.31Q466.83-19.21 466.49-20.01 466.15-20.8 465.57-21.39 464.98-21.97 464.19-22.31 463.39-22.66 462.49-22.66L462.49-22.66 460.49-22.66Q459.58-22.66 458.79-22.31 458-21.97 457.41-21.39 456.82-20.8 456.48-20.01 456.14-19.21 456.14-18.31L456.14-18.31 456.14-14.6 466.83-14.6Z" opacity="1" transform="matrix(1,0,0,1,0,0)" fill="#ffffff" class="slogan-text-1" data-fill-palette-color="secondary" id="text-1"></path></svg></g></svg></g></svg></g></svg></g><g transform="matrix(1,0,0,1,202.96229832594528,0)"><svg viewBox="0 0 105.37094013305231 99.41170843365447" height="99.41170843365447" width="105.37094013305231"><g><svg xmlns="http://www.w3.org/2000/svg" xmlns:xlink="http://www.w3.org/1999/xlink" version="1.1" x="0" y="0" viewBox="8.963513781583005 10.79709265003703 81.92052419839703 77.28752591615769" enable-background="new 0 0 100 100" xml:space="preserve" height="99.41170843365447" width="105.37094013305231" class="icon-icon-0" data-fill-palette-color="accent" id="icon-0"><g fill="#f70f03" data-fill-palette-color="accent"><path d="M75.559 67.102C75.559 72.681 75.508 78.152 75.592 83.621 75.616 85.155 75.011 86.051 73.625 86.291 70.559 86.822 67.482 87.453 64.387 87.621 58.473 87.943 52.543 88.125 46.621 88.077 40.157 88.024 33.675 87.904 27.297 86.605 26.719 86.487 26.158 86.276 25.598 86.082 24.613 85.74 24.2 85.087 24.209 83.994 24.254 78.753 24.201 73.511 24.255 68.269 24.265 67.327 23.956 66.956 23.107 66.604 13.58 62.653 8.137 53.54 9.066 43.198 9.947 33.394 18.043 24.795 27.791 23.379 29.141 23.183 29.976 22.677 30.752 21.444 39.887 6.926 60.834 7.347 69.535 22.146 69.802 22.6 70.44 23.023 70.964 23.112 80.419 24.712 86.92 29.932 89.834 39.08 93.377 50.203 87.678 61.991 76.895 66.515 76.474 66.692 76.058 66.883 75.559 67.102M28.61 81.888A199.3 199.3 0 0 1 71.179 81.883V69.427C71.101 67.549 71.179 65.665 71.179 63.801 83.493 61.349 88.118 49.705 85.959 41.221 83.807 32.766 76.085 27.992 71.78 27.98 72.02 29.597 72.387 31.217 72.466 32.851 72.545 34.487 71.582 35.429 70.223 35.396 68.959 35.366 68.184 34.42 68.132 32.841 67.694 19.632 53.909 11.262 41.985 16.98 39.006 18.408 36.572 20.475 34.767 23.294 36.433 23.713 38.016 24 39.52 24.518 41.17 25.087 41.752 26.313 41.21 27.589 40.704 28.779 39.511 29.155 37.942 28.537 34.912 27.345 31.764 27.079 28.604 27.6 20.093 29.004 13.913 35.989 13.343 44.682 12.798 52.99 18.294 60.706 26.5 63.151 27.19 63.356 27.879 63.545 28.61 63.753 28.61 65.719 28.686 67.603 28.61 69.483z" fill="#ffffff" data-fill-palette-color="accent"></path></g><path d="M38.54 73.868C38.54 74.904 37.561 75.743 36.352 75.743 35.144 75.743 34.164 74.904 34.164 73.868V62.618C34.164 61.582 35.143 60.743 36.352 60.743 37.56 60.743 38.54 61.582 38.54 62.618z" fill="#ffffff" data-fill-palette-color="accent"></path><path d="M65.665 73.868C65.665 74.904 64.686 75.743 63.477 75.743 62.269 75.743 61.289 74.904 61.289 73.868V62.618C61.289 61.582 62.268 60.743 63.477 60.743 64.685 60.743 65.665 61.582 65.665 62.618z" fill="#ffffff" data-fill-palette-color="accent"></path><path d="M47.728 52.743A2.188 2.188 0 1 1 52.104 52.743V72.68A2.188 2.188 0 1 1 47.728 72.68z" fill="#ffffff" data-fill-palette-color="accent"></path></svg></g></svg></g></svg></g></svg></g></svg></g></svg></g><defs></defs></svg><rect width="320" height="360" fill="none" stroke="none" visibility="hidden"></rect></g></svg></g></svg>